Coordinates
version=1
nRows=27
nColumns=19
inDegrees=yes

Units are S.I. units (second, meters, Newtons, ...)
If the header above contains a line with 'inDegrees', this indicates whether rotational values are in degrees (yes) or radians (no).

endheader
time	pelvis_tilt	pelvis_list	pelvis_rotation	pelvis_tx	pelvis_ty	pelvis_tz	hip_flexion_r	hip_adduction_r	hip_rotation_r	knee_angle_r	knee_angle_r_beta	ankle_angle_r	hip_flexion_l	hip_adduction_l	hip_rotation_l	knee_angle_l	knee_angle_l_beta	ankle_angle_l
     15.44666667	      1.84004325	     -6.90091501	     -1.09287765	      2.25427907	      1.04852191	      1.03544431	     21.70657148	      9.72906202	     -5.59066650	     20.07440259	      0.35036442	      7.66315692	    -13.80584688	     -8.98466247	     -5.68118391	     45.42796755	      0.79286761	    -15.94901904
     15.45333333	      2.51739525	     -7.04965892	     -1.08574860	      2.25450215	      1.04519603	      1.03556344	     20.96668427	      9.85182651	     -5.91176475	     21.43170332	      0.37405379	      7.63249732	    -13.81503277	     -9.27372746	     -5.42161326	     47.55311864	      0.82995849	    -14.54027200
     15.46000000	      2.80014145	     -7.23745595	     -0.71238476	      2.25457019	      1.04109808	      1.03525226	     20.71966362	      9.85641961	     -6.71527486	     22.92463336	      0.40011033	      7.52568999	    -13.13095419	     -9.69876315	     -4.67371258	     49.92710415	      0.87139235	    -13.00876957
     15.46666667	      3.46948553	     -7.38540914	     -0.74969964	      2.25456136	      1.03719722	      1.03538677	     20.04634980	      9.99733082	     -6.95181572	     24.55889010	      0.42863349	      7.52407506	    -13.05356797	     -9.97570816	     -4.47860964	     52.03724177	      0.90822120	    -11.40539785
     15.47333333	      3.52684349	     -7.53467707	     -0.45389652	      2.25435146	      1.03233698	      1.03514087	     20.15870748	      9.99157269	     -7.62271642	     26.41431984	      0.46101685	      7.62257581	    -12.00773898	    -10.34765434	     -3.78553910	     54.43200929	      0.95001778	     -9.83446844
     15.48000000	      3.80181810	     -7.70570122	     -0.38690857	      2.25403255	      1.02757806	      1.03514623	     20.05998574	     10.11737301	     -7.95661613	     28.40876634	      0.49582651	      7.91537286	    -11.28120370	    -10.69909737	     -3.42542933	     56.66750271	      0.98903450	     -8.26368809
     15.48666667	      4.05882233	     -7.93459552	     -0.34436930	      2.25358508	      1.02267908	      1.03513097	     20.01916702	     10.32181255	     -8.22958966	     30.51732319	      0.53262777	      8.44115975	    -10.48777166	    -11.12970902	     -3.14012951	     58.88299178	      1.02770208	     -6.74277920
     15.49333333	      4.24061270	     -8.17417985	     -0.34978980	      2.25299758	      1.01763665	      1.03516314	     20.09622379	     10.57211138	     -8.38068211	     32.73750320	      0.57137722	      9.23820606	     -9.55897803	    -11.59334929	     -2.93281789	     61.08421171	      1.06612062	     -5.28891859
     15.50000000	      4.41439658	     -8.48745488	     -0.38021393	      2.25232666	      1.01258672	      1.03517652	     20.17101491	     10.92530448	     -8.45635066	     34.97253926	      0.61038596	     10.29282901	     -8.57654844	    -12.17124808	     -2.81416959	     63.25165113	      1.10394957	     -3.91054204
     15.50666667	      4.92976218	     -8.84336499	     -0.44758456	      2.25156794	      1.00806367	      1.03520480	     19.81127466	     11.37683032	     -8.37358966	     37.13608207	      0.64814690	     11.60066732	     -7.98685728	    -12.80104075	     -2.83131519	     65.25773579	      1.13896235	     -2.61603989
     15.51333333	      4.58972089	     -9.11561750	     -0.56979813	      2.25056744	      1.00260564	      1.03528354	     20.41830696	     11.74712925	     -8.22550126	     39.37784356	      0.68727302	     13.03091999	     -6.24453898	    -13.39024073	     -2.71063721	     67.47673266	      1.17769115	     -1.37730760
     15.52000000	      5.13360000	     -9.45617529	     -0.63854004	      2.24961753	      0.99853602	      1.03519953	     19.86969278	     12.21954304	     -7.98109763	     41.31920294	      0.72115614	     14.67208650	     -5.56580838	    -14.05032592	     -2.76316855	     69.35454376	      1.21046514	     -0.24177053
     15.52666667	      4.69238182	     -9.72174678	     -0.85703930	      2.24837731	      0.99350886	      1.03531116	     20.37561378	     12.66778782	     -7.57301939	     43.22761632	      0.75446423	     16.23826764	     -3.60501298	    -14.63252201	     -2.65806744	     71.43675393	      1.24680656	      0.88519279
     15.53333333	      5.21515318	     -9.95855257	     -0.94432552	      2.24712314	      0.99009427	      1.03518204	     19.60174966	     13.05609307	     -7.18067959	     44.77055536	      0.78139360	     17.90946328	     -2.76189949	    -15.17296830	     -2.66137748	     73.15285064	      1.27675810	      1.83206202
     15.54000000	      4.81766381	    -10.22109449	     -1.20462339	      2.24571071	      0.98590003	      1.03530736	     19.75056864	     13.54003484	     -6.65199018	     46.16214074	      0.80568135	     19.41142984	     -0.76000151	    -15.75680488	     -2.55783512	     75.01435612	      1.30924750	      2.89983412
     15.54666667	      4.60684187	    -10.25755647	     -1.36005058	      2.24414544	      0.98245486	      1.03516792	     19.54915954	     13.72547678	     -6.17427165	     47.31980782	      0.82588645	     20.92958793	      1.11410019	    -16.01123314	     -2.30058721	     76.67321740	      1.33820009	      3.84730468
     15.55333333	      5.06402766	    -10.27441834	     -1.46729752	      2.24250092	      0.98037689	      1.03497650	     18.41493361	     13.89319056	     -5.60555833	     48.12503364	      0.83994029	     22.21544224	      2.20150033	    -16.19471175	     -2.12349272	     78.01814031	      1.36167342	      4.60626919
     15.56000000	      4.65030068	    -10.26050288	     -1.54566693	      2.24090037	      0.97764290	      1.03472333	     18.13954407	     13.98432697	     -5.22154199	     48.74000150	      0.85067350	     23.51457443	      4.41509168	    -16.31710453	     -1.66205418	     79.41194754	      1.38599995	      5.60910846
     15.56666667	      4.78694846	    -10.11951622	     -1.56223373	      2.23925509	      0.97613511	      1.03443084	     17.09604143	     13.90124459	     -4.83871953	     49.07497738	      0.85651994	     24.62696413	      5.96361253	    -16.24673824	     -1.28124811	     80.47721645	      1.40459240	      6.47565594
     15.57333333	      5.07778618	     -9.93403310	     -1.67619827	      2.23748897	      0.97533107	      1.03427321	     15.76836178	     13.83282822	     -4.22879574	     49.20881429	      0.85885583	     25.45932598	      7.30080684	    -16.07099769	     -0.99285795	     81.32513227	      1.41939132	      7.06285178
     15.58000000	      5.08579092	     -9.64578392	     -1.44576190	      2.23591991	      0.97464172	      1.03366631	     14.66545761	     13.46767905	     -4.18385168	     49.11568433	      0.85723041	     26.38620825	      9.07674854	    -15.66464102	     -0.28127489	     82.01360442	      1.43140743	      7.88727280
     15.58666667	      5.19619508	     -9.34577675	     -1.50827797	      2.23444604	      0.97463691	      1.03354741	     13.30489294	     13.23647363	     -3.68145192	     48.82131944	      0.85209277	     27.07548693	     10.55088340	    -15.30866199	      0.01167309	     82.41909339	      1.43848455	      8.55070032
     15.59333333	      5.35303694	     -8.93777465	     -1.24472440	      2.23305949	      0.97500442	      1.03303890	     11.85576323	     12.72554319	     -3.68223668	     48.38687525	      0.84451029	     27.67815060	     12.04321517	    -14.67600084	      0.66180905	     82.63860402	      1.44231573	      9.22624363
     15.60000000	      5.33096383	     -8.57265100	     -1.31950255	      2.23187921	      0.97573813	      1.03306855	     10.47327812	     12.39928754	     -3.23391331	     47.76765181	      0.83370280	     28.07063889	     13.53705090	    -14.19994007	      0.88935582	     82.59968172	      1.44163641	      9.80213369
     15.60666667	      5.30456458	     -8.15188003	     -1.30101488	      2.23089899	      0.97682544	      1.03303321	      9.03361503	     11.97952004	     -2.90106157	     47.01530926	      0.82057195	     28.41532328	     14.97894532	    -13.60957481	      1.16879118	     82.34581034	      1.43720552	     10.40040618
     15.61333333	      5.90572479	     -7.59548825	     -0.87303924	      2.23012699	      0.97910299	      1.03247373	      6.79897729	     11.28082713	     -3.03607078	     45.98117313	      0.80252287	     28.64650157	     15.68432418	    -12.71366859	      1.68231870	     81.75869033	      1.42695834	     10.97515651
     15.62000000	      5.62299719	     -7.18535373	     -1.02575981	      2.22951674	      0.98065720	      1.03274812	      5.51789148	     10.90188464	     -2.55012180	     44.99993782	      0.78539708	     28.65733670	     17.19056755	    -12.19968502	      1.68063366	     81.08376267	      1.41517863	     11.47206048
